<mxfile host="app.diagrams.net" modified="2023-11-03T20:56:24.380Z" agent="Mozilla/5.0 (Windows NT 10.0; Win64; x64) AppleWebKit/537.36 (KHTML, like Gecko) Chrome/116.0.5845.833 YaBrowser/23.9.4.833 Yowser/2.5 Safari/537.36" etag="F8ehBkGyVVOWV3XZhF4n" version="22.0.8" type="github">
  <diagram name="Страница — 1" id="6bJ6J4g5H0hAXcQo4oVN">
    <mxGraphModel dx="1386" dy="759" grid="1" gridSize="10" guides="1" tooltips="1" connect="1" arrows="1" fold="1" page="1" pageScale="1" pageWidth="827" pageHeight="1169" math="0" shadow="0">
      <root>
        <mxCell id="0" />
        <mxCell id="1" parent="0" />
        <mxCell id="LyIlBi1Wi5pkrEanXtp--1" value="start" style="rounded=1;whiteSpace=wrap;html=1;" vertex="1" parent="1">
          <mxGeometry x="354" y="80" width="120" height="60" as="geometry" />
        </mxCell>
        <mxCell id="LyIlBi1Wi5pkrEanXtp--7" value="Введите имя" style="rounded=1;whiteSpace=wrap;html=1;" vertex="1" parent="1">
          <mxGeometry x="440" y="265" width="120" height="60" as="geometry" />
        </mxCell>
        <mxCell id="LyIlBi1Wi5pkrEanXtp--8" value="" style="endArrow=classic;html=1;rounded=0;entryX=0.5;entryY=0;entryDx=0;entryDy=0;exitX=0.5;exitY=1;exitDx=0;exitDy=0;" edge="1" parent="1" source="LyIlBi1Wi5pkrEanXtp--16" target="LyIlBi1Wi5pkrEanXtp--7">
          <mxGeometry width="50" height="50" relative="1" as="geometry">
            <mxPoint x="414" y="310" as="sourcePoint" />
            <mxPoint x="464" y="190" as="targetPoint" />
          </mxGeometry>
        </mxCell>
        <mxCell id="LyIlBi1Wi5pkrEanXtp--9" value="/start" style="text;html=1;strokeColor=none;fillColor=none;align=center;verticalAlign=middle;whiteSpace=wrap;rounded=0;" vertex="1" parent="1">
          <mxGeometry x="474" y="95" width="60" height="30" as="geometry" />
        </mxCell>
        <mxCell id="LyIlBi1Wi5pkrEanXtp--44" style="edgeStyle=orthogonalEdgeStyle;rounded=0;orthogonalLoop=1;jettySize=auto;html=1;exitX=0.5;exitY=1;exitDx=0;exitDy=0;entryX=0.5;entryY=0;entryDx=0;entryDy=0;" edge="1" parent="1" source="LyIlBi1Wi5pkrEanXtp--13">
          <mxGeometry relative="1" as="geometry">
            <mxPoint x="500" y="610" as="targetPoint" />
          </mxGeometry>
        </mxCell>
        <mxCell id="LyIlBi1Wi5pkrEanXtp--13" value="Город засыпает" style="rounded=1;whiteSpace=wrap;html=1;" vertex="1" parent="1">
          <mxGeometry x="440" y="525" width="120" height="60" as="geometry" />
        </mxCell>
        <mxCell id="LyIlBi1Wi5pkrEanXtp--38" style="edgeStyle=orthogonalEdgeStyle;rounded=0;orthogonalLoop=1;jettySize=auto;html=1;exitX=1;exitY=0.5;exitDx=0;exitDy=0;entryX=0;entryY=0.5;entryDx=0;entryDy=0;" edge="1" parent="1" source="LyIlBi1Wi5pkrEanXtp--14" target="LyIlBi1Wi5pkrEanXtp--16">
          <mxGeometry relative="1" as="geometry" />
        </mxCell>
        <mxCell id="LyIlBi1Wi5pkrEanXtp--14" value="Правила" style="rounded=1;whiteSpace=wrap;html=1;" vertex="1" parent="1">
          <mxGeometry x="280" y="180" width="120" height="60" as="geometry" />
        </mxCell>
        <mxCell id="LyIlBi1Wi5pkrEanXtp--16" value="Начать игру" style="rounded=1;whiteSpace=wrap;html=1;" vertex="1" parent="1">
          <mxGeometry x="440" y="180" width="120" height="60" as="geometry" />
        </mxCell>
        <mxCell id="LyIlBi1Wi5pkrEanXtp--27" style="edgeStyle=orthogonalEdgeStyle;rounded=0;orthogonalLoop=1;jettySize=auto;html=1;exitX=0.5;exitY=1;exitDx=0;exitDy=0;" edge="1" parent="1" source="LyIlBi1Wi5pkrEanXtp--17">
          <mxGeometry relative="1" as="geometry">
            <mxPoint x="500" y="440" as="targetPoint" />
          </mxGeometry>
        </mxCell>
        <mxCell id="LyIlBi1Wi5pkrEanXtp--17" value="Готов" style="rounded=1;whiteSpace=wrap;html=1;" vertex="1" parent="1">
          <mxGeometry x="440" y="350" width="120" height="60" as="geometry" />
        </mxCell>
        <mxCell id="LyIlBi1Wi5pkrEanXtp--18" value="" style="endArrow=classic;html=1;rounded=0;entryX=0.5;entryY=0;entryDx=0;entryDy=0;exitX=0.5;exitY=1;exitDx=0;exitDy=0;" edge="1" parent="1" target="LyIlBi1Wi5pkrEanXtp--17" source="LyIlBi1Wi5pkrEanXtp--7">
          <mxGeometry width="50" height="50" relative="1" as="geometry">
            <mxPoint x="650" y="240" as="sourcePoint" />
            <mxPoint x="700" y="190" as="targetPoint" />
          </mxGeometry>
        </mxCell>
        <mxCell id="LyIlBi1Wi5pkrEanXtp--19" value="кнопка готов" style="text;html=1;strokeColor=none;fillColor=none;align=center;verticalAlign=middle;whiteSpace=wrap;rounded=0;" vertex="1" parent="1">
          <mxGeometry x="560" y="365" width="60" height="30" as="geometry" />
        </mxCell>
        <mxCell id="LyIlBi1Wi5pkrEanXtp--20" value="Отправить имя" style="text;html=1;strokeColor=none;fillColor=none;align=center;verticalAlign=middle;whiteSpace=wrap;rounded=0;" vertex="1" parent="1">
          <mxGeometry x="560" y="280" width="96" height="30" as="geometry" />
        </mxCell>
        <mxCell id="LyIlBi1Wi5pkrEanXtp--30" style="edgeStyle=orthogonalEdgeStyle;rounded=0;orthogonalLoop=1;jettySize=auto;html=1;exitX=0.5;exitY=1;exitDx=0;exitDy=0;entryX=0.5;entryY=0;entryDx=0;entryDy=0;" edge="1" parent="1" source="LyIlBi1Wi5pkrEanXtp--21" target="LyIlBi1Wi5pkrEanXtp--13">
          <mxGeometry relative="1" as="geometry" />
        </mxCell>
        <mxCell id="LyIlBi1Wi5pkrEanXtp--21" value="Ваша роль: *роль*&lt;br&gt;" style="rounded=1;whiteSpace=wrap;html=1;" vertex="1" parent="1">
          <mxGeometry x="440" y="440" width="120" height="60" as="geometry" />
        </mxCell>
        <mxCell id="LyIlBi1Wi5pkrEanXtp--26" value="" style="endArrow=classic;html=1;rounded=0;entryX=0.442;entryY=0;entryDx=0;entryDy=0;entryPerimeter=0;" edge="1" parent="1" target="LyIlBi1Wi5pkrEanXtp--16">
          <mxGeometry width="50" height="50" relative="1" as="geometry">
            <mxPoint x="410" y="140" as="sourcePoint" />
            <mxPoint x="240" y="200" as="targetPoint" />
            <Array as="points" />
          </mxGeometry>
        </mxCell>
        <mxCell id="LyIlBi1Wi5pkrEanXtp--28" value="Ожидание всех игроков" style="text;html=1;strokeColor=none;fillColor=none;align=center;verticalAlign=middle;whiteSpace=wrap;rounded=0;" vertex="1" parent="1">
          <mxGeometry x="547.5" y="325" width="85" height="30" as="geometry" />
        </mxCell>
        <mxCell id="LyIlBi1Wi5pkrEanXtp--33" value="" style="endArrow=classic;startArrow=classic;html=1;rounded=0;exitX=0.5;exitY=0;exitDx=0;exitDy=0;" edge="1" parent="1" source="LyIlBi1Wi5pkrEanXtp--14">
          <mxGeometry width="50" height="50" relative="1" as="geometry">
            <mxPoint x="364" y="190" as="sourcePoint" />
            <mxPoint x="414" y="140" as="targetPoint" />
          </mxGeometry>
        </mxCell>
        <mxCell id="LyIlBi1Wi5pkrEanXtp--40" value="Описание действий" style="text;html=1;strokeColor=none;fillColor=none;align=center;verticalAlign=middle;whiteSpace=wrap;rounded=0;" vertex="1" parent="1">
          <mxGeometry x="560" y="455" width="142" height="30" as="geometry" />
        </mxCell>
        <mxCell id="LyIlBi1Wi5pkrEanXtp--41" value="sleep(1sec)" style="text;html=1;strokeColor=none;fillColor=none;align=center;verticalAlign=middle;whiteSpace=wrap;rounded=0;" vertex="1" parent="1">
          <mxGeometry x="560" y="500" width="60" height="30" as="geometry" />
        </mxCell>
        <mxCell id="LyIlBi1Wi5pkrEanXtp--54" value="Pool" style="swimlane;childLayout=stackLayout;resizeParent=1;resizeParentMax=0;horizontal=0;startSize=20;horizontalStack=0;html=1;" vertex="1" parent="1">
          <mxGeometry x="30" y="610" width="714" height="360" as="geometry" />
        </mxCell>
        <mxCell id="LyIlBi1Wi5pkrEanXtp--55" value="Lane 1" style="swimlane;startSize=20;horizontal=0;html=1;" vertex="1" parent="LyIlBi1Wi5pkrEanXtp--54">
          <mxGeometry x="20" width="694" height="120" as="geometry" />
        </mxCell>
        <mxCell id="LyIlBi1Wi5pkrEanXtp--56" value="Lane 2" style="swimlane;startSize=20;horizontal=0;html=1;" vertex="1" parent="LyIlBi1Wi5pkrEanXtp--54">
          <mxGeometry x="20" y="120" width="694" height="120" as="geometry" />
        </mxCell>
        <mxCell id="LyIlBi1Wi5pkrEanXtp--57" value="Lane 3" style="swimlane;startSize=20;horizontal=0;html=1;" vertex="1" parent="LyIlBi1Wi5pkrEanXtp--54">
          <mxGeometry x="20" y="240" width="694" height="120" as="geometry" />
        </mxCell>
      </root>
    </mxGraphModel>
  </diagram>
</mxfile>
